<svg width="352" height="375" viewBox="0 0 352 375" fill="none" xmlns="http://www.w3.org/2000/svg">
<path d="M312.682 36.7326C339.379 71.2625 353.136 103.548 308.572 87.0252M308.572 87.0252C300.778 84.1353 291.2 79.7525 279.595 73.6274C215.049 39.5598 211.455 55.8149 227.396 83.6304M308.572 87.0252C304.162 79.0698 298.008 70.0969 290.949 60.967M308.572 87.0252C320.843 109.158 319.619 123.414 286.839 111.26M227.396 83.6304C232.22 92.0493 238.834 101.527 246.089 110.989M227.396 83.6304C235.541 86.7359 245.602 91.3911 257.862 97.8618C269.467 103.987 279.045 108.37 286.839 111.26M227.396 83.6304C192.655 70.3862 192.75 85.3325 205.662 107.865M286.839 111.26C282.428 103.304 276.274 94.3313 269.216 85.2014M286.839 111.26C299.109 133.392 297.886 147.648 265.105 135.494M205.662 107.865C210.487 116.284 217.101 125.762 224.356 135.224M205.662 107.865C213.808 110.97 223.869 115.626 236.129 122.096C247.733 128.221 257.311 132.604 265.105 135.494M205.662 107.865C170.922 94.6206 171.016 109.567 183.929 132.099M265.105 135.494C260.695 127.539 254.541 118.566 247.482 109.436M265.105 135.494C277.376 157.626 276.153 171.883 243.372 159.728M183.929 132.099C188.753 140.518 195.367 149.996 202.622 159.458M183.929 132.099C192.074 135.205 202.135 139.86 214.395 146.331C226 152.456 235.578 156.839 243.372 159.728M183.929 132.099C149.188 118.855 149.283 133.801 162.195 156.334M243.372 159.728C238.962 151.773 232.808 142.8 225.749 133.67M243.372 159.728C255.643 181.861 254.419 196.117 221.639 183.963M162.195 156.334C167.02 164.752 173.634 174.23 180.889 183.692M162.195 156.334C170.341 159.439 180.402 164.094 192.662 170.565C204.267 176.69 213.845 181.073 221.639 183.963M162.195 156.334C127.455 143.089 127.549 158.036 140.462 180.568M221.639 183.963C217.228 176.007 211.074 167.034 204.016 157.905M221.639 183.963C233.909 206.095 232.686 220.351 199.905 208.197M140.462 180.568C145.287 188.987 151.901 198.465 159.156 207.927M140.462 180.568C148.608 183.673 158.669 188.329 170.928 194.799C182.533 200.924 192.111 205.307 199.905 208.197M140.462 180.568C105.722 167.324 105.816 182.27 118.729 204.802M199.905 208.197C195.495 200.242 189.341 191.269 182.282 182.139M199.905 208.197C212.176 230.33 210.953 244.586 178.172 232.432M118.729 204.802C123.553 213.221 130.167 222.699 137.422 232.161M118.729 204.802C126.874 207.908 136.935 212.563 149.195 219.034C160.8 225.159 170.378 229.542 178.172 232.432M118.729 204.802C83.9882 191.558 84.0827 206.504 96.9953 229.037M178.172 232.432C173.761 224.476 167.607 215.503 160.549 206.373M178.172 232.432C190.443 254.564 189.219 268.82 156.439 256.666M96.9953 229.037C101.82 237.456 108.434 246.934 115.689 256.396M96.9953 229.037C105.141 232.142 115.202 236.798 127.462 243.268C139.067 249.393 148.645 253.776 156.439 256.666M96.9953 229.037C62.2548 215.793 62.3493 230.739 75.262 253.271M156.439 256.666C152.028 248.711 145.874 239.738 138.816 230.608M156.439 256.666C168.709 278.798 167.486 293.055 134.705 280.9M75.262 253.271C80.0865 261.69 86.7006 271.168 93.9557 280.63M75.262 253.271C83.4077 256.377 93.4685 261.032 105.728 267.503C117.333 273.628 126.911 278.011 134.705 280.9M75.262 253.271C40.5214 240.027 40.616 254.973 53.5286 277.506M134.705 280.9C130.295 272.945 124.141 263.972 117.082 254.842M134.705 280.9C149.893 308.295 144.408 323.623 83.995 291.737C71.7352 285.266 61.6743 280.611 53.5286 277.506M53.5286 277.506C58.3532 285.924 64.9672 295.402 72.2223 304.864M53.5286 277.506C5.80788 259.313 23.8163 294.312 50.4889 329.099" stroke="url(#paint0_linear_744_638)"/>
<path d="M302.93 47.6072C329.626 82.1372 343.383 114.423 298.819 97.8998M298.819 97.8998C291.025 95.01 281.447 90.6271 269.842 84.5021C205.296 50.4345 201.702 66.6895 217.643 94.5051M298.819 97.8998C294.409 89.9445 288.255 80.9715 281.196 71.8416M298.819 97.8998C311.09 120.032 309.866 134.288 277.086 122.134M217.643 94.5051C222.467 102.924 229.081 112.402 236.336 121.864M217.643 94.5051C225.788 97.6105 235.849 102.266 248.109 108.736C259.714 114.861 269.292 119.244 277.086 122.134M217.643 94.5051C182.902 81.2608 182.997 96.2071 195.909 118.739M277.086 122.134C272.675 114.179 266.521 105.206 259.463 96.076M277.086 122.134C289.357 144.267 288.133 158.523 255.353 146.369M195.909 118.739C200.734 127.158 207.348 136.636 214.603 146.098M195.909 118.739C204.055 121.845 214.116 126.5 226.376 132.971C237.98 139.096 247.558 143.479 255.353 146.369M195.909 118.739C161.169 105.495 161.263 120.442 174.176 142.974M255.353 146.369C250.942 138.413 244.788 129.44 237.729 120.31M255.353 146.369C267.623 168.501 266.4 182.757 233.619 170.603M174.176 142.974C179 151.393 185.614 160.871 192.87 170.333M174.176 142.974C182.322 146.079 192.382 150.735 204.642 157.205C216.247 163.33 225.825 167.713 233.619 170.603M174.176 142.974C139.435 129.73 139.53 144.676 152.443 167.208M233.619 170.603C229.209 162.648 223.055 153.675 215.996 144.545M233.619 170.603C245.89 192.735 244.666 206.992 211.886 194.837M152.443 167.208C157.267 175.627 163.881 185.105 171.136 194.567M152.443 167.208C160.588 170.314 170.649 174.969 182.909 181.44C194.514 187.565 204.092 191.948 211.886 194.837M152.443 167.208C117.702 153.964 117.796 168.91 130.709 191.443M211.886 194.837C207.475 186.882 201.321 177.909 194.263 168.779M211.886 194.837C224.156 216.97 222.933 231.226 190.152 219.072M130.709 191.443C135.534 199.862 142.148 209.339 149.403 218.802M130.709 191.443C138.855 194.548 148.916 199.203 161.175 205.674C172.78 211.799 182.358 216.182 190.152 219.072M130.709 191.443C95.9686 178.198 96.0631 193.145 108.976 215.677M190.152 219.072C185.742 211.116 179.588 202.143 172.529 193.014M190.152 219.072C202.423 241.204 201.2 255.46 168.419 243.306M108.976 215.677C113.8 224.096 120.414 233.574 127.669 243.036M108.976 215.677C117.121 218.782 127.182 223.438 139.442 229.908C151.047 236.033 160.625 240.416 168.419 243.306M108.976 215.677C74.2352 202.433 74.3298 217.379 87.2424 239.911M168.419 243.306C164.009 235.351 157.855 226.378 150.796 217.248M168.419 243.306C180.69 265.439 179.466 279.695 146.686 267.541M87.2424 239.911C92.067 248.33 98.681 257.808 105.936 267.27M87.2424 239.911C95.3881 243.017 105.449 247.672 117.709 254.143C129.314 260.268 138.892 264.651 146.686 267.541M87.2424 239.911C52.5019 226.667 52.5964 241.614 65.509 264.146M146.686 267.541C142.275 259.585 136.121 250.612 129.063 241.482M146.686 267.541C158.956 289.673 157.733 303.929 124.952 291.775M65.509 264.146C70.3336 272.565 76.9477 282.043 84.2027 291.505M65.509 264.146C73.6547 267.251 83.7156 271.907 95.9754 278.377C107.58 284.502 117.158 288.885 124.952 291.775M65.509 264.146C30.7685 250.902 30.863 265.848 43.7757 288.38M124.952 291.775C120.542 283.82 114.388 274.847 107.329 265.717M124.952 291.775C140.14 319.17 134.655 334.498 74.242 302.612C61.9822 296.141 51.9214 291.486 43.7757 288.38M43.7757 288.38C48.6003 296.799 55.2143 306.277 62.4694 315.739M43.7757 288.38C-3.94504 270.187 14.0633 305.187 40.736 339.973" stroke="url(#paint1_linear_744_638)"/>
<defs>
<linearGradient id="paint0_linear_744_638" x1="106.663" y1="200.77" x2="288.601" y2="125.922" gradientUnits="userSpaceOnUse">
<stop stop-color="#99A9FF"/>
<stop offset="1" stop-color="#5CE5CF"/>
</linearGradient>
<linearGradient id="paint1_linear_744_638" x1="210.355" y1="228.422" x2="131.141" y2="157.383" gradientUnits="userSpaceOnUse">
<stop offset="0.14407" stop-color="#99A9FF"/>
<stop offset="0.726512" stop-color="#66FFE5" stop-opacity="0.35"/>
</linearGradient>
</defs>
</svg>
